<?xml version="1.0" encoding="UTF-8" standalone="no"?><!-- Generator: Gravit.io --><svg xmlns="http://www.w3.org/2000/svg" xmlns:xlink="http://www.w3.org/1999/xlink" style="isolation:isolate" viewBox="0 0 40 7" width="40pt" height="7pt"><defs><clipPath id="_clipPath_CwyA0JLWQ9qxsn0IT04bkC5wun3IyzmS"><rect width="40" height="7"/></clipPath></defs><g clip-path="url(#_clipPath_CwyA0JLWQ9qxsn0IT04bkC5wun3IyzmS)"><rect x="0" y="0" width="40" height="7" transform="matrix(1,0,0,1,0,0)" fill="none"/><path d=" M 22.989 5.454 L 22.989 5.454 Q 22.925 5.454 22.881 5.413 L 22.881 5.413 L 22.881 5.413 Q 22.837 5.373 22.837 5.308 L 22.837 5.308 L 22.837 3.214 L 22.4 3.214 L 22.4 3.214 Q 22.336 3.214 22.292 3.173 L 22.292 3.173 L 22.292 3.173 Q 22.248 3.133 22.248 3.068 L 22.248 3.068 L 22.248 2.567 L 22.248 2.567 Q 22.248 2.503 22.292 2.462 L 22.292 2.462 L 22.292 2.462 Q 22.336 2.421 22.4 2.421 L 22.4 2.421 L 22.837 2.421 L 22.837 2.246 L 22.837 2.246 Q 22.837 1.662 23.176 1.4 L 23.176 1.4 L 23.176 1.4 Q 23.514 1.138 24.144 1.138 L 24.144 1.138 L 25.69 1.138 L 25.69 1.138 Q 25.754 1.138 25.795 1.178 L 25.795 1.178 L 25.795 1.178 Q 25.836 1.219 25.836 1.283 L 25.836 1.283 L 25.836 1.785 L 25.836 1.785 Q 25.836 1.843 25.795 1.887 L 25.795 1.887 L 25.795 1.887 Q 25.754 1.931 25.69 1.931 L 25.69 1.931 L 24.191 1.931 L 24.191 1.931 Q 24.004 1.931 23.925 2.015 L 23.925 2.015 L 23.925 2.015 Q 23.847 2.1 23.847 2.275 L 23.847 2.275 L 23.847 2.421 L 25.69 2.421 L 25.69 2.421 Q 25.754 2.421 25.795 2.462 L 25.795 2.462 L 25.795 2.462 Q 25.836 2.503 25.836 2.567 L 25.836 2.567 L 25.836 5.308 L 25.836 5.308 Q 25.836 5.367 25.795 5.411 L 25.795 5.411 L 25.795 5.411 Q 25.754 5.454 25.69 5.454 L 25.69 5.454 L 24.978 5.454 L 24.978 5.454 Q 24.914 5.454 24.87 5.413 L 24.87 5.413 L 24.87 5.413 Q 24.827 5.373 24.827 5.308 L 24.827 5.308 L 24.827 3.214 L 23.847 3.214 L 23.847 5.308 L 23.847 5.308 Q 23.847 5.367 23.806 5.411 L 23.806 5.411 L 23.806 5.411 Q 23.765 5.454 23.701 5.454 L 23.701 5.454 L 22.989 5.454 Z " fill="rgb(255,255,255)"/><path d=" M 26.647 5.454 L 26.647 5.454 Q 26.588 5.454 26.545 5.411 L 26.545 5.411 L 26.545 5.411 Q 26.501 5.367 26.501 5.308 L 26.501 5.308 L 26.501 2.567 L 26.501 2.567 Q 26.501 2.503 26.545 2.462 L 26.545 2.462 L 26.545 2.462 Q 26.588 2.421 26.647 2.421 L 26.647 2.421 L 27.364 2.421 L 27.364 2.421 Q 27.428 2.421 27.469 2.462 L 27.469 2.462 L 27.469 2.462 Q 27.51 2.503 27.51 2.567 L 27.51 2.567 L 27.51 2.788 L 27.51 2.788 Q 27.667 2.596 27.915 2.479 L 27.915 2.479 L 27.915 2.479 Q 28.163 2.363 28.484 2.363 L 28.484 2.363 L 28.484 2.363 Q 28.817 2.363 29.076 2.514 L 29.076 2.514 L 29.076 2.514 Q 29.336 2.666 29.485 2.963 L 29.485 2.963 L 29.485 2.963 Q 29.633 3.261 29.633 3.681 L 29.633 3.681 L 29.633 5.308 L 29.633 5.308 Q 29.633 5.367 29.592 5.411 L 29.592 5.411 L 29.592 5.411 Q 29.552 5.454 29.487 5.454 L 29.487 5.454 L 28.712 5.454 L 28.712 5.454 Q 28.647 5.454 28.604 5.413 L 28.604 5.413 L 28.604 5.413 Q 28.56 5.373 28.56 5.308 L 28.56 5.308 L 28.56 3.716 L 28.56 3.716 Q 28.56 3.453 28.434 3.313 L 28.434 3.313 L 28.434 3.313 Q 28.309 3.173 28.07 3.173 L 28.07 3.173 L 28.07 3.173 Q 27.837 3.173 27.702 3.316 L 27.702 3.316 L 27.702 3.316 Q 27.568 3.459 27.568 3.716 L 27.568 3.716 L 27.568 5.308 L 27.568 5.308 Q 27.568 5.367 27.527 5.411 L 27.527 5.411 L 27.527 5.411 Q 27.487 5.454 27.422 5.454 L 27.422 5.454 L 26.647 5.454 Z " fill="rgb(255,255,255)"/><path d=" M 31.407 5.513 L 31.407 5.513 Q 30.841 5.513 30.517 5.157 L 30.517 5.157 L 30.517 5.157 Q 30.193 4.801 30.17 4.142 L 30.17 4.142 L 30.164 3.938 L 30.17 3.727 L 30.17 3.727 Q 30.193 3.092 30.52 2.727 L 30.52 2.727 L 30.52 2.727 Q 30.847 2.363 31.407 2.363 L 31.407 2.363 L 31.407 2.363 Q 31.932 2.363 32.252 2.701 L 32.252 2.701 L 32.252 1.458 L 32.252 1.458 Q 32.252 1.394 32.296 1.353 L 32.296 1.353 L 32.296 1.353 Q 32.34 1.313 32.398 1.313 L 32.398 1.313 L 33.151 1.313 L 33.151 1.313 Q 33.215 1.313 33.259 1.353 L 33.259 1.353 L 33.259 1.353 Q 33.302 1.394 33.302 1.458 L 33.302 1.458 L 33.302 5.308 L 33.302 5.308 Q 33.302 5.373 33.259 5.413 L 33.259 5.413 L 33.259 5.413 Q 33.215 5.454 33.151 5.454 L 33.151 5.454 L 32.457 5.454 L 32.457 5.454 Q 32.398 5.454 32.355 5.411 L 32.355 5.411 L 32.355 5.411 Q 32.311 5.367 32.311 5.308 L 32.311 5.308 L 32.311 5.127 L 32.311 5.127 Q 31.996 5.513 31.407 5.513 L 31.407 5.513 L 31.407 5.513 Z  M 31.745 4.702 L 31.745 4.702 Q 31.996 4.702 32.118 4.541 L 32.118 4.541 L 32.118 4.541 Q 32.241 4.381 32.252 4.136 L 32.252 4.136 L 32.252 4.136 Q 32.264 3.973 32.264 3.914 L 32.264 3.914 L 32.264 3.914 Q 32.264 3.85 32.252 3.698 L 32.252 3.698 L 32.252 3.698 Q 32.241 3.471 32.115 3.322 L 32.115 3.322 L 32.115 3.322 Q 31.99 3.173 31.745 3.173 L 31.745 3.173 L 31.745 3.173 Q 31.482 3.173 31.369 3.328 L 31.369 3.328 L 31.369 3.328 Q 31.255 3.483 31.237 3.757 L 31.237 3.757 L 31.232 3.938 L 31.237 4.118 L 31.237 4.118 Q 31.255 4.393 31.369 4.547 L 31.369 4.547 L 31.369 4.547 Q 31.482 4.702 31.745 4.702 L 31.745 4.702 L 31.745 4.702 Z " fill-rule="evenodd" fill="rgb(255,255,255)"/><path d=" M 35.391 5.513 L 35.391 5.513 Q 34.679 5.513 34.271 5.13 L 34.271 5.13 L 34.271 5.13 Q 33.862 4.748 33.851 4.019 L 33.851 4.019 L 33.851 3.838 L 33.851 3.838 Q 33.874 3.144 34.282 2.753 L 34.282 2.753 L 34.282 2.753 Q 34.691 2.363 35.385 2.363 L 35.385 2.363 L 35.385 2.363 Q 35.887 2.363 36.234 2.564 L 36.234 2.564 L 36.234 2.564 Q 36.581 2.765 36.753 3.118 L 36.753 3.118 L 36.753 3.118 Q 36.925 3.471 36.925 3.92 L 36.925 3.92 L 36.925 4.066 L 36.925 4.066 Q 36.925 4.13 36.881 4.174 L 36.881 4.174 L 36.881 4.174 Q 36.837 4.217 36.773 4.217 L 36.773 4.217 L 34.924 4.217 L 34.924 4.252 L 34.924 4.252 Q 34.93 4.515 35.047 4.675 L 35.047 4.675 L 35.047 4.675 Q 35.163 4.836 35.379 4.836 L 35.379 4.836 L 35.379 4.836 Q 35.519 4.836 35.604 4.781 L 35.604 4.781 L 35.604 4.781 Q 35.688 4.725 35.764 4.637 L 35.764 4.637 L 35.764 4.637 Q 35.817 4.579 35.849 4.565 L 35.849 4.565 L 35.849 4.565 Q 35.881 4.55 35.951 4.55 L 35.951 4.55 L 36.715 4.55 L 36.715 4.55 Q 36.767 4.55 36.805 4.582 L 36.805 4.582 L 36.805 4.582 Q 36.843 4.614 36.843 4.661 L 36.843 4.661 L 36.843 4.661 Q 36.843 4.813 36.671 5.017 L 36.671 5.017 L 36.671 5.017 Q 36.499 5.221 36.17 5.367 L 36.17 5.367 L 36.17 5.367 Q 35.84 5.513 35.391 5.513 L 35.391 5.513 L 35.391 5.513 Z  M 34.924 3.622 L 35.852 3.622 L 35.852 3.611 L 35.852 3.611 Q 35.852 3.331 35.729 3.176 L 35.729 3.176 L 35.729 3.176 Q 35.607 3.022 35.385 3.022 L 35.385 3.022 L 35.385 3.022 Q 35.163 3.022 35.044 3.176 L 35.044 3.176 L 35.044 3.176 Q 34.924 3.331 34.924 3.611 L 34.924 3.611 L 34.924 3.622 L 34.924 3.622 Z " fill-rule="evenodd" fill="rgb(255,255,255)"/><path d=" M 37.596 5.454 L 37.596 5.454 Q 37.537 5.454 37.494 5.411 L 37.494 5.411 L 37.494 5.411 Q 37.45 5.367 37.45 5.308 L 37.45 5.308 L 37.45 2.573 L 37.45 2.573 Q 37.45 2.508 37.491 2.465 L 37.491 2.465 L 37.491 2.465 Q 37.532 2.421 37.596 2.421 L 37.596 2.421 L 38.307 2.421 L 38.307 2.421 Q 38.372 2.421 38.415 2.465 L 38.415 2.465 L 38.415 2.465 Q 38.459 2.508 38.459 2.573 L 38.459 2.573 L 38.459 2.794 L 38.459 2.794 Q 38.622 2.613 38.841 2.517 L 38.841 2.517 L 38.841 2.517 Q 39.06 2.421 39.328 2.421 L 39.328 2.421 L 39.591 2.421 L 39.591 2.421 Q 39.655 2.421 39.696 2.462 L 39.696 2.462 L 39.696 2.462 Q 39.737 2.503 39.737 2.567 L 39.737 2.567 L 39.737 3.202 L 39.737 3.202 Q 39.737 3.261 39.696 3.305 L 39.696 3.305 L 39.696 3.305 Q 39.655 3.348 39.591 3.348 L 39.591 3.348 L 39.002 3.348 L 39.002 3.348 Q 38.768 3.348 38.643 3.477 L 38.643 3.477 L 38.643 3.477 Q 38.517 3.605 38.517 3.838 L 38.517 3.838 L 38.517 5.308 L 38.517 5.308 Q 38.517 5.373 38.474 5.413 L 38.474 5.413 L 38.474 5.413 Q 38.43 5.454 38.366 5.454 L 38.366 5.454 L 37.596 5.454 Z " fill="rgb(255,255,255)"/><path d=" M 0.577 5.454 L 0.577 5.454 Q 0.519 5.454 0.481 5.416 L 0.481 5.416 L 0.481 5.416 Q 0.443 5.378 0.443 5.32 L 0.443 5.32 L 0.443 1.447 L 0.443 1.447 Q 0.443 1.382 0.481 1.348 L 0.481 1.348 L 0.481 1.348 Q 0.519 1.313 0.577 1.313 L 0.577 1.313 L 0.846 1.313 L 0.846 1.313 Q 0.91 1.313 0.945 1.348 L 0.945 1.348 L 0.945 1.348 Q 0.98 1.382 0.98 1.447 L 0.98 1.447 L 0.98 2.806 L 0.98 2.806 Q 1.149 2.59 1.38 2.476 L 1.38 2.476 L 1.38 2.476 Q 1.61 2.363 1.948 2.363 L 1.948 2.363 L 1.948 2.363 Q 2.508 2.363 2.82 2.721 L 2.82 2.721 L 2.82 2.721 Q 3.132 3.08 3.132 3.669 L 3.132 3.669 L 3.132 5.32 L 3.132 5.32 Q 3.132 5.378 3.094 5.416 L 3.094 5.416 L 3.094 5.416 Q 3.057 5.454 2.998 5.454 L 2.998 5.454 L 2.724 5.454 L 2.724 5.454 Q 2.666 5.454 2.628 5.416 L 2.628 5.416 L 2.628 5.416 Q 2.59 5.378 2.59 5.32 L 2.59 5.32 L 2.59 3.704 L 2.59 3.704 Q 2.59 3.284 2.386 3.051 L 2.386 3.051 L 2.386 3.051 Q 2.182 2.818 1.797 2.818 L 1.797 2.818 L 1.797 2.818 Q 1.423 2.818 1.202 3.054 L 1.202 3.054 L 1.202 3.054 Q 0.98 3.29 0.98 3.704 L 0.98 3.704 L 0.98 5.32 L 0.98 5.32 Q 0.98 5.378 0.942 5.416 L 0.942 5.416 L 0.942 5.416 Q 0.904 5.454 0.846 5.454 L 0.846 5.454 L 0.577 5.454 Z " fill="rgb(255,255,255)"/><path d=" M 4.818 5.513 L 4.818 5.513 Q 4.532 5.513 4.29 5.396 L 4.29 5.396 L 4.29 5.396 Q 4.048 5.279 3.905 5.078 L 3.905 5.078 L 3.905 5.078 Q 3.762 4.877 3.762 4.632 L 3.762 4.632 L 3.762 4.632 Q 3.762 4.247 4.077 4.002 L 4.077 4.002 L 4.077 4.002 Q 4.392 3.757 4.935 3.675 L 4.935 3.675 L 5.81 3.553 L 5.81 3.383 L 5.81 3.383 Q 5.81 2.782 5.116 2.782 L 5.116 2.782 L 5.116 2.782 Q 4.847 2.782 4.684 2.891 L 4.684 2.891 L 4.684 2.891 Q 4.521 2.998 4.445 3.144 L 4.445 3.144 L 4.445 3.144 Q 4.422 3.202 4.395 3.223 L 4.395 3.223 L 4.395 3.223 Q 4.369 3.243 4.322 3.243 L 4.322 3.243 L 4.095 3.243 L 4.095 3.243 Q 4.042 3.243 4.005 3.206 L 4.005 3.206 L 4.005 3.206 Q 3.967 3.167 3.967 3.115 L 3.967 3.115 L 3.967 3.115 Q 3.967 2.981 4.092 2.803 L 4.092 2.803 L 4.092 2.803 Q 4.217 2.625 4.48 2.494 L 4.48 2.494 L 4.48 2.494 Q 4.742 2.363 5.122 2.363 L 5.122 2.363 L 5.122 2.363 Q 5.775 2.363 6.058 2.666 L 6.058 2.666 L 6.058 2.666 Q 6.341 2.969 6.341 3.424 L 6.341 3.424 L 6.341 5.32 L 6.341 5.32 Q 6.341 5.378 6.303 5.416 L 6.303 5.416 L 6.303 5.416 Q 6.265 5.454 6.207 5.454 L 6.207 5.454 L 5.95 5.454 L 5.95 5.454 Q 5.892 5.454 5.857 5.416 L 5.857 5.416 L 5.857 5.416 Q 5.822 5.378 5.822 5.32 L 5.822 5.32 L 5.822 5.063 L 5.822 5.063 Q 5.693 5.256 5.448 5.384 L 5.448 5.384 L 5.448 5.384 Q 5.203 5.513 4.818 5.513 L 4.818 5.513 L 4.818 5.513 Z  M 4.935 5.087 L 4.935 5.087 Q 5.32 5.087 5.565 4.836 L 5.565 4.836 L 5.565 4.836 Q 5.81 4.585 5.81 4.107 L 5.81 4.107 L 5.81 3.943 L 5.127 4.042 L 5.127 4.042 Q 4.707 4.101 4.492 4.241 L 4.492 4.241 L 4.492 4.241 Q 4.276 4.381 4.276 4.591 L 4.276 4.591 L 4.276 4.591 Q 4.276 4.83 4.471 4.958 L 4.471 4.958 L 4.471 4.958 Q 4.667 5.087 4.935 5.087 L 4.935 5.087 L 4.935 5.087 Z " fill-rule="evenodd" fill="rgb(255,255,255)"/><path d=" M 8.225 5.513 L 8.225 5.513 Q 7.822 5.513 7.545 5.381 L 7.545 5.381 L 7.545 5.381 Q 7.268 5.25 7.134 5.081 L 7.134 5.081 L 7.134 5.081 Q 7 4.912 7 4.801 L 7 4.801 L 7 4.801 Q 7 4.743 7.041 4.711 L 7.041 4.711 L 7.041 4.711 Q 7.082 4.678 7.128 4.678 L 7.128 4.678 L 7.373 4.678 L 7.373 4.678 Q 7.408 4.678 7.429 4.69 L 7.429 4.69 L 7.429 4.69 Q 7.449 4.702 7.484 4.743 L 7.484 4.743 L 7.484 4.743 Q 7.618 4.906 7.785 4.999 L 7.785 4.999 L 7.785 4.999 Q 7.951 5.092 8.231 5.092 L 8.231 5.092 L 8.231 5.092 Q 8.546 5.092 8.735 4.976 L 8.735 4.976 L 8.735 4.976 Q 8.925 4.859 8.925 4.637 L 8.925 4.637 L 8.925 4.637 Q 8.925 4.492 8.843 4.404 L 8.843 4.404 L 8.843 4.404 Q 8.762 4.317 8.572 4.247 L 8.572 4.247 L 8.572 4.247 Q 8.382 4.177 8.009 4.095 L 8.009 4.095 L 8.009 4.095 Q 7.502 3.984 7.292 3.774 L 7.292 3.774 L 7.292 3.774 Q 7.082 3.564 7.082 3.232 L 7.082 3.232 L 7.082 3.232 Q 7.082 3.016 7.21 2.815 L 7.21 2.815 L 7.21 2.815 Q 7.338 2.613 7.592 2.488 L 7.592 2.488 L 7.592 2.488 Q 7.846 2.363 8.196 2.363 L 8.196 2.363 L 8.196 2.363 Q 8.563 2.363 8.823 2.485 L 8.823 2.485 L 8.823 2.485 Q 9.082 2.608 9.214 2.771 L 9.214 2.771 L 9.214 2.771 Q 9.345 2.934 9.345 3.045 L 9.345 3.045 L 9.345 3.045 Q 9.345 3.098 9.307 3.133 L 9.307 3.133 L 9.307 3.133 Q 9.269 3.167 9.217 3.167 L 9.217 3.167 L 8.995 3.167 L 8.995 3.167 Q 8.913 3.167 8.878 3.103 L 8.878 3.103 L 8.878 3.103 Q 8.779 2.992 8.712 2.931 L 8.712 2.931 L 8.712 2.931 Q 8.645 2.87 8.517 2.826 L 8.517 2.826 L 8.517 2.826 Q 8.388 2.782 8.196 2.782 L 8.196 2.782 L 8.196 2.782 Q 7.91 2.782 7.758 2.902 L 7.758 2.902 L 7.758 2.902 Q 7.607 3.022 7.607 3.22 L 7.607 3.22 L 7.607 3.22 Q 7.607 3.343 7.671 3.427 L 7.671 3.427 L 7.671 3.427 Q 7.735 3.512 7.916 3.585 L 7.916 3.585 L 7.916 3.585 Q 8.097 3.657 8.452 3.733 L 8.452 3.733 L 8.452 3.733 Q 9.007 3.85 9.237 4.066 L 9.237 4.066 L 9.237 4.066 Q 9.467 4.282 9.467 4.62 L 9.467 4.62 L 9.467 4.62 Q 9.467 4.871 9.324 5.075 L 9.324 5.075 L 9.324 5.075 Q 9.182 5.279 8.899 5.396 L 8.899 5.396 L 8.899 5.396 Q 8.616 5.513 8.225 5.513 L 8.225 5.513 Z " fill="rgb(255,255,255)"/><path d=" M 10.29 5.454 L 10.29 5.454 Q 10.232 5.454 10.194 5.416 L 10.194 5.416 L 10.194 5.416 Q 10.156 5.378 10.156 5.32 L 10.156 5.32 L 10.156 1.447 L 10.156 1.447 Q 10.156 1.382 10.194 1.348 L 10.194 1.348 L 10.194 1.348 Q 10.232 1.313 10.29 1.313 L 10.29 1.313 L 10.558 1.313 L 10.558 1.313 Q 10.622 1.313 10.657 1.348 L 10.657 1.348 L 10.657 1.348 Q 10.692 1.382 10.692 1.447 L 10.692 1.447 L 10.692 2.806 L 10.692 2.806 Q 10.862 2.59 11.092 2.476 L 11.092 2.476 L 11.092 2.476 Q 11.322 2.363 11.661 2.363 L 11.661 2.363 L 11.661 2.363 Q 12.221 2.363 12.533 2.721 L 12.533 2.721 L 12.533 2.721 Q 12.845 3.08 12.845 3.669 L 12.845 3.669 L 12.845 5.32 L 12.845 5.32 Q 12.845 5.378 12.807 5.416 L 12.807 5.416 L 12.807 5.416 Q 12.769 5.454 12.711 5.454 L 12.711 5.454 L 12.437 5.454 L 12.437 5.454 Q 12.378 5.454 12.34 5.416 L 12.34 5.416 L 12.34 5.416 Q 12.302 5.378 12.302 5.32 L 12.302 5.32 L 12.302 3.704 L 12.302 3.704 Q 12.302 3.284 12.098 3.051 L 12.098 3.051 L 12.098 3.051 Q 11.894 2.818 11.509 2.818 L 11.509 2.818 L 11.509 2.818 Q 11.136 2.818 10.914 3.054 L 10.914 3.054 L 10.914 3.054 Q 10.692 3.29 10.692 3.704 L 10.692 3.704 L 10.692 5.32 L 10.692 5.32 Q 10.692 5.378 10.655 5.416 L 10.655 5.416 L 10.655 5.416 Q 10.617 5.454 10.558 5.454 L 10.558 5.454 L 10.29 5.454 Z " fill="rgb(255,255,255)"/><path d=" M 14.817 5.454 L 14.817 5.454 Q 13.912 5.454 13.912 4.433 L 13.912 4.433 L 13.912 2.87 L 13.452 2.87 L 13.452 2.87 Q 13.393 2.87 13.358 2.835 L 13.358 2.835 L 13.358 2.835 Q 13.323 2.8 13.323 2.742 L 13.323 2.742 L 13.323 2.555 L 13.323 2.555 Q 13.323 2.497 13.358 2.459 L 13.358 2.459 L 13.358 2.459 Q 13.393 2.421 13.452 2.421 L 13.452 2.421 L 13.912 2.421 L 13.912 1.447 L 13.912 1.447 Q 13.912 1.388 13.947 1.35 L 13.947 1.35 L 13.947 1.35 Q 13.982 1.313 14.041 1.313 L 14.041 1.313 L 14.297 1.313 L 14.297 1.313 Q 14.356 1.313 14.394 1.35 L 14.394 1.35 L 14.394 1.35 Q 14.432 1.388 14.432 1.447 L 14.432 1.447 L 14.432 2.421 L 15.155 2.421 L 15.155 2.421 Q 15.213 2.421 15.251 2.459 L 15.251 2.459 L 15.251 2.459 Q 15.289 2.497 15.289 2.555 L 15.289 2.555 L 15.289 2.742 L 15.289 2.742 Q 15.289 2.8 15.251 2.835 L 15.251 2.835 L 15.251 2.835 Q 15.213 2.87 15.155 2.87 L 15.155 2.87 L 14.432 2.87 L 14.432 4.393 L 14.432 4.393 Q 14.432 4.69 14.528 4.842 L 14.528 4.842 L 14.528 4.842 Q 14.624 4.993 14.857 4.993 L 14.857 4.993 L 15.213 4.993 L 15.213 4.993 Q 15.272 4.993 15.307 5.031 L 15.307 5.031 L 15.307 5.031 Q 15.342 5.069 15.342 5.127 L 15.342 5.127 L 15.342 5.32 L 15.342 5.32 Q 15.342 5.378 15.307 5.416 L 15.307 5.416 L 15.307 5.416 Q 15.272 5.454 15.213 5.454 L 15.213 5.454 L 14.817 5.454 Z " fill="rgb(255,255,255)"/><path d=" M 16.753 5.513 L 16.753 5.513 Q 16.467 5.513 16.225 5.396 L 16.225 5.396 L 16.225 5.396 Q 15.983 5.279 15.84 5.078 L 15.84 5.078 L 15.84 5.078 Q 15.697 4.877 15.697 4.632 L 15.697 4.632 L 15.697 4.632 Q 15.697 4.247 16.012 4.002 L 16.012 4.002 L 16.012 4.002 Q 16.327 3.757 16.87 3.675 L 16.87 3.675 L 17.745 3.553 L 17.745 3.383 L 17.745 3.383 Q 17.745 2.782 17.051 2.782 L 17.051 2.782 L 17.051 2.782 Q 16.782 2.782 16.619 2.891 L 16.619 2.891 L 16.619 2.891 Q 16.456 2.998 16.38 3.144 L 16.38 3.144 L 16.38 3.144 Q 16.357 3.202 16.33 3.223 L 16.33 3.223 L 16.33 3.223 Q 16.304 3.243 16.257 3.243 L 16.257 3.243 L 16.03 3.243 L 16.03 3.243 Q 15.977 3.243 15.939 3.206 L 15.939 3.206 L 15.939 3.206 Q 15.902 3.167 15.902 3.115 L 15.902 3.115 L 15.902 3.115 Q 15.902 2.981 16.027 2.803 L 16.027 2.803 L 16.027 2.803 Q 16.152 2.625 16.415 2.494 L 16.415 2.494 L 16.415 2.494 Q 16.677 2.363 17.057 2.363 L 17.057 2.363 L 17.057 2.363 Q 17.71 2.363 17.993 2.666 L 17.993 2.666 L 17.993 2.666 Q 18.276 2.969 18.276 3.424 L 18.276 3.424 L 18.276 5.32 L 18.276 5.32 Q 18.276 5.378 18.238 5.416 L 18.238 5.416 L 18.238 5.416 Q 18.2 5.454 18.142 5.454 L 18.142 5.454 L 17.885 5.454 L 17.885 5.454 Q 17.827 5.454 17.792 5.416 L 17.792 5.416 L 17.792 5.416 Q 17.757 5.378 17.757 5.32 L 17.757 5.32 L 17.757 5.063 L 17.757 5.063 Q 17.628 5.256 17.383 5.384 L 17.383 5.384 L 17.383 5.384 Q 17.138 5.513 16.753 5.513 L 16.753 5.513 L 16.753 5.513 Z  M 16.87 5.087 L 16.87 5.087 Q 17.255 5.087 17.5 4.836 L 17.5 4.836 L 17.5 4.836 Q 17.745 4.585 17.745 4.107 L 17.745 4.107 L 17.745 3.943 L 17.062 4.042 L 17.062 4.042 Q 16.642 4.101 16.427 4.241 L 16.427 4.241 L 16.427 4.241 Q 16.211 4.381 16.211 4.591 L 16.211 4.591 L 16.211 4.591 Q 16.211 4.83 16.406 4.958 L 16.406 4.958 L 16.406 4.958 Q 16.602 5.087 16.87 5.087 L 16.87 5.087 L 16.87 5.087 Z " fill-rule="evenodd" fill="rgb(255,255,255)"/><path d=" M 20.352 6.737 L 20.352 6.737 Q 19.868 6.737 19.577 6.574 L 19.577 6.574 L 19.577 6.574 Q 19.285 6.411 19.165 6.201 L 19.165 6.201 L 19.165 6.201 Q 19.046 5.991 19.046 5.839 L 19.046 5.839 L 19.046 5.839 Q 19.046 5.787 19.087 5.749 L 19.087 5.749 L 19.087 5.749 Q 19.127 5.711 19.18 5.711 L 19.18 5.711 L 19.437 5.711 L 19.437 5.711 Q 19.489 5.711 19.524 5.737 L 19.524 5.737 L 19.524 5.737 Q 19.559 5.763 19.582 5.833 L 19.582 5.833 L 19.582 5.833 Q 19.746 6.3 20.323 6.3 L 20.323 6.3 L 20.323 6.3 Q 20.761 6.3 20.971 6.113 L 20.971 6.113 L 20.971 6.113 Q 21.181 5.927 21.181 5.454 L 21.181 5.454 L 21.181 5.052 L 21.181 5.052 Q 20.842 5.483 20.236 5.483 L 20.236 5.483 L 20.236 5.483 Q 19.617 5.483 19.311 5.087 L 19.311 5.087 L 19.311 5.087 Q 19.005 4.69 18.987 4.083 L 18.987 4.083 L 18.982 3.92 L 18.987 3.762 L 18.987 3.762 Q 19.005 3.162 19.311 2.762 L 19.311 2.762 L 19.311 2.762 Q 19.617 2.363 20.236 2.363 L 20.236 2.363 L 20.236 2.363 Q 20.848 2.363 21.192 2.812 L 21.192 2.812 L 21.192 2.561 L 21.192 2.561 Q 21.192 2.503 21.23 2.462 L 21.23 2.462 L 21.23 2.462 Q 21.268 2.421 21.327 2.421 L 21.327 2.421 L 21.577 2.421 L 21.577 2.421 Q 21.636 2.421 21.674 2.462 L 21.674 2.462 L 21.674 2.462 Q 21.712 2.503 21.712 2.561 L 21.712 2.561 L 21.712 5.39 L 21.712 5.39 Q 21.712 6.737 20.352 6.737 L 20.352 6.737 L 20.352 6.737 Z  M 20.341 5.028 L 20.341 5.028 Q 20.749 5.028 20.956 4.763 L 20.956 4.763 L 20.956 4.763 Q 21.163 4.498 21.181 4.124 L 21.181 4.124 L 21.181 4.124 Q 21.187 4.072 21.187 3.92 L 21.187 3.92 L 21.187 3.92 Q 21.187 3.774 21.181 3.722 L 21.181 3.722 L 21.181 3.722 Q 21.163 3.348 20.956 3.083 L 20.956 3.083 L 20.956 3.083 Q 20.749 2.818 20.341 2.818 L 20.341 2.818 L 20.341 2.818 Q 19.921 2.818 19.731 3.083 L 19.731 3.083 L 19.731 3.083 Q 19.542 3.348 19.524 3.768 L 19.524 3.768 L 19.518 3.92 L 19.524 4.077 L 19.524 4.077 Q 19.542 4.498 19.731 4.763 L 19.731 4.763 L 19.731 4.763 Q 19.921 5.028 20.341 5.028 L 20.341 5.028 L 20.341 5.028 Z " fill-rule="evenodd" fill="rgb(255,255,255)"/></g></svg>